<svg xmlns:inkscape="http://www.inkscape.org/namespaces/inkscape" xmlns:sodipodi="http://sodipodi.sourceforge.net/DTD/sodipodi-0.dtd" xmlns="http://www.w3.org/2000/svg" xmlns:svg="http://www.w3.org/2000/svg" width="67.449936mm" height="16.146959mm" viewBox="0 0 67.449936 16.146959" id="svg5" inkscape:version="1.2 (dc2aedaf03, 2022-05-15)" sodipodi:docname="LogoLabSid.svg"><defs id="defs2"></defs><g inkscape:label="Camada 1" inkscape:groupmode="layer" id="layer1" transform="translate(-35.597201,-100.22788)"><path d="M 46.425926,116.06548 H 35.597201 v -14.57714 h 5.147388 v 13.0607 h 5.681337 z" style="font-weight:bold;font-size:3.175px;font-family:BinnerD;-inkscape-font-specification:'BinnerD Bold';text-align:center;text-anchor:middle;fill:#000080;fill-opacity:1;stroke:none;stroke-width:0.2" id="path443"></path><path d="m 57.233297,116.06548 h -3.94063 l 0.128126,-1.39899 q -0.982488,0.81167 -1.601883,1.14273 -0.939766,0.50218 -2.029046,0.50218 -1.473736,0 -2.167885,-0.85432 -0.715503,-0.87573 -0.715503,-2.18924 0,-2.10382 1.73003,-2.95813 1.025204,-0.51251 3.363951,-0.87574 l 1.228112,-0.19219 q 0,-0.67301 0,-0.89709 0.01033,-1.59118 -0.266999,-2.03969 -0.320385,-0.54488 -1.281505,-0.54488 -0.897057,0 -1.345582,0.44844 -0.213613,0.21355 -0.213613,0.53386 0,0.6303 0.779581,1.09996 -0.363094,0.32032 -1.099958,0.7689 -0.715511,0.42708 -1.217428,0.63029 -1.228112,-0.91844 -1.228112,-1.93298 0,-0.83296 0.800941,-1.52712 1.37762,-1.18537 4.036746,-1.18537 2.39214,0 3.833837,0.89702 0.768903,0.48082 1.025204,1.50576 0.181513,0.71551 0.181513,1.30289 v 0.9398 z m -4.004707,-5.79883 q -1.089281,0.062 -1.61256,0.53386 -0.555352,0.50218 -0.555352,1.68735 0,0.9077 0.331062,1.37756 0.320384,0.43811 0.832973,0.43811 0.587383,0 0.822302,-0.48082 0.181582,-0.36302 0.181582,-1.15334 z" style="font-weight:bold;font-size:3.175px;font-family:BinnerD;-inkscape-font-specification:'BinnerD Bold';text-align:center;text-anchor:middle;fill:#008000;fill-opacity:1;stroke:none;stroke-width:0.2" id="path445"></path><path d="m 59.561367,116.06548 v -14.57714 h 4.079462 v 4.0902 q 0.886372,-0.99319 2.061085,-0.99319 0.897057,0 1.815468,0.42709 0.929095,0.41675 1.591206,1.12131 1.463051,1.56983 1.463051,4.3678 0,2.7873 -1.537806,4.38916 -1.356266,1.42034 -3.235804,1.42034 -0.939772,0 -1.569844,-0.5125 -0.234968,-0.20322 -0.587384,-0.64064 v 0.9077 z m 4.079462,-8.62876 v 5.29685 q 0,2.12518 1.046558,2.12518 0.309708,0 0.619415,-0.26728 0.309708,-0.27761 0.459189,-0.66198 0.437834,-1.16403 0.437834,-3.68433 0,-2.54165 -0.352417,-3.41732 -0.373771,-0.92912 -0.982488,-0.92912 -0.608738,0 -0.971804,0.59792 -0.256322,0.41675 -0.256322,0.9398 z" style="font-weight:bold;font-size:3.175px;font-family:BinnerD;-inkscape-font-specification:'BinnerD Bold';text-align:center;text-anchor:middle;fill:#008000;fill-opacity:1;stroke:none;stroke-width:0.2" id="path447"></path><path d="m 82.68187,103.16501 q -0.555284,0.82228 -1.73003,1.18537 -0.49122,-0.70483 -0.939773,-1.03589 -0.875695,-0.65165 -2.221277,-0.65165 -0.768903,0 -1.185397,0.25625 -0.480543,0.28863 -0.480543,0.74754 0,0.50217 0.64077,0.81167 0.234967,0.10678 1.580522,0.45947 1.601883,0.42709 2.712525,0.85431 3.46006,1.33493 3.46006,4.97654 0,2.58437 -1.697992,4.05809 -1.228112,1.06793 -2.808633,1.36696 -0.95045,0.18117 -2.039731,0.18117 -2.872711,0 -4.624102,-1.24944 -1.751391,-1.23883 -1.751391,-3.02227 0,-1.39892 1.228112,-2.60572 0.56596,0.16051 1.228105,0.54489 0.672801,0.38438 1.217435,0.85431 -0.566029,0.32032 -0.822303,0.52353 -0.523251,0.41675 -0.523251,1.02515 0,0.99318 1.025203,1.71937 1.046566,0.72619 2.744557,0.72619 1.751391,0 2.765918,-0.57657 0.448511,-0.25626 0.726187,-0.69416 0.288354,-0.44844 0.288354,-0.89709 0,-1.00386 -1.078604,-1.64456 -0.587384,-0.3527 -2.424179,-0.87574 -1.772752,-0.50217 -2.488255,-0.79025 -3.203766,-1.29215 -3.203766,-4.12216 0,-2.17856 1.55916,-3.20378 1.388305,-0.90777 3.75909,-0.90777 2.125162,0 3.673646,0.74761 0.886379,0.42709 1.409658,1.23877 z" style="font-weight:bold;font-size:3.175px;font-family:BinnerD;-inkscape-font-specification:'BinnerD Bold';text-align:center;text-anchor:middle;fill:#000080;fill-opacity:1;stroke:none;stroke-width:0.2" id="path449"></path><path d="m 90.274791,116.06548 h -4.154216 v -11.22381 h 4.154216 z M 88.23506,100.22823 q 0.961134,0 1.655283,0.57657 0.694149,0.58759 0.694149,1.40966 0,0.81168 -0.683479,1.38831 -0.704826,0.59793 -1.708675,0.59793 -0.993166,0 -1.687315,-0.57657 -0.694149,-0.58759 -0.694149,-1.40967 0,-0.84363 0.715504,-1.42034 0.704833,-0.56624 1.708675,-0.56624 z" style="font-weight:bold;font-size:3.175px;font-family:BinnerD;-inkscape-font-specification:'BinnerD Bold';text-align:center;text-anchor:middle;fill:#008000;fill-opacity:1;stroke:none;stroke-width:0.2" id="path451"></path><path d="m 103.04714,101.48834 v 14.57714 h -4.079463 v -0.73687 q -0.875696,0.99319 -2.071769,0.99319 -0.886373,0 -1.815468,-0.41676 -0.918412,-0.42709 -1.580522,-1.13199 -1.463052,-1.56989 -1.463052,-4.3678 0,-2.7873 1.537806,-4.38915 1.356259,-1.42035 3.235804,-1.42035 0.939766,0 1.569845,0.51251 0.234967,0.20321 0.587383,0.64063 v -4.26103 z m -4.079463,11.98209 v -5.29685 q 0,-2.12518 -1.046565,-2.12518 -0.309708,0 -0.619416,0.27761 -0.309707,0.26728 -0.459188,0.65165 -0.437834,1.16409 -0.437834,3.6844 0,2.55233 0.352416,3.41732 0.373771,0.92905 0.982489,0.92905 0.608738,0 0.971811,-0.59792 0.256321,-0.41676 0.256321,-0.9398 z" style="font-weight:bold;font-size:3.175px;font-family:BinnerD;-inkscape-font-specification:'BinnerD Bold';text-align:center;text-anchor:middle;fill:#008000;fill-opacity:1;stroke:none;stroke-width:0.2" id="path453"></path><rect style="fill:#008000;fill-opacity:1;stroke:none;stroke-width:0.2" id="rect4068" width="27.912163" height="27.912163" x="101.09045" y="140.08937"></rect><path d="m 113.91734,161.33402 h -10.82872 v -14.57714 h 5.14738 v 13.0607 h 5.68134 z" style="font-weight:bold;font-size:3.175px;font-family:BinnerD;-inkscape-font-specification:'BinnerD Bold';text-align:center;text-anchor:middle;fill:#000080;fill-opacity:1;stroke:none;stroke-width:0.2" id="path443-7"></path><path d="m 125.16758,148.43366 q -0.55528,0.82228 -1.73003,1.18537 -0.49122,-0.70483 -0.93977,-1.03589 -0.87569,-0.65165 -2.22128,-0.65165 -0.7689,0 -1.18539,0.25625 -0.48055,0.28863 -0.48055,0.74754 0,0.50217 0.64077,0.81167 0.23497,0.10678 1.58053,0.45947 1.60188,0.42709 2.71252,0.85431 3.46006,1.33493 3.46006,4.97654 0,2.58437 -1.69799,4.05809 -1.22811,1.06793 -2.80863,1.36696 -0.95045,0.18117 -2.03974,0.18117 -2.87271,0 -4.6241,-1.24944 -1.75139,-1.23883 -1.75139,-3.02227 0,-1.39892 1.22811,-2.60572 0.56596,0.16051 1.22811,0.54489 0.6728,0.38438 1.21743,0.85431 -0.56603,0.32032 -0.8223,0.52353 -0.52325,0.41675 -0.52325,1.02515 0,0.99318 1.0252,1.71937 1.04657,0.72619 2.74456,0.72619 1.75139,0 2.76592,-0.57657 0.44851,-0.25626 0.72618,-0.69416 0.28836,-0.44844 0.28836,-0.89709 0,-1.00386 -1.07861,-1.64456 -0.58738,-0.3527 -2.42417,-0.87574 -1.77276,-0.50217 -2.48826,-0.79025 -3.20377,-1.29215 -3.20377,-4.12216 0,-2.17856 1.55917,-3.20378 1.3883,-0.90777 3.75909,-0.90777 2.12516,0 3.67364,0.74761 0.88638,0.42709 1.40966,1.23877 z" style="font-weight:bold;font-size:3.175px;font-family:BinnerD;-inkscape-font-specification:'BinnerD Bold';text-align:center;text-anchor:middle;fill:#000080;fill-opacity:1;stroke:none;stroke-width:0.2" id="path449-2"></path></g></svg>